<mxfile host="Electron" agent="Mozilla/5.0 (Windows NT 10.0; Win64; x64) AppleWebKit/537.36 (KHTML, like Gecko) draw.io/24.7.17 Chrome/128.0.6613.36 Electron/32.0.1 Safari/537.36" version="24.7.17">
  <diagram id="C5RBs43oDa-KdzZeNtuy" name="Page-1">
    <mxGraphModel dx="1925" dy="1989" grid="1" gridSize="10" guides="1" tooltips="1" connect="1" arrows="1" fold="1" page="1" pageScale="1" pageWidth="827" pageHeight="1169" math="0" shadow="0">
      <root>
        <mxCell id="WIyWlLk6GJQsqaUBKTNV-0" />
        <mxCell id="WIyWlLk6GJQsqaUBKTNV-1" parent="WIyWlLk6GJQsqaUBKTNV-0" />
        <mxCell id="2JI3gn7ElyO9Jui0lNbg-55" value="程序运行流程" style="rounded=0;whiteSpace=wrap;html=1;verticalAlign=top;align=center;fontSize=29;" vertex="1" parent="WIyWlLk6GJQsqaUBKTNV-1">
          <mxGeometry x="-20" y="-590" width="1380" height="1032.5" as="geometry" />
        </mxCell>
        <mxCell id="2JI3gn7ElyO9Jui0lNbg-53" value="交互逻辑" style="rounded=0;whiteSpace=wrap;html=1;verticalAlign=top;align=center;fontSize=29;" vertex="1" parent="WIyWlLk6GJQsqaUBKTNV-1">
          <mxGeometry x="-30" y="480" width="1390" height="1032.5" as="geometry" />
        </mxCell>
        <mxCell id="2JI3gn7ElyO9Jui0lNbg-5" value="MainWindow::MainWindow()&lt;div&gt;主视窗类构造函数&lt;br&gt;&lt;/div&gt;" style="rounded=0;whiteSpace=wrap;html=1;fillColor=#d5e8d4;strokeColor=#82b366;verticalAlign=top;" vertex="1" parent="WIyWlLk6GJQsqaUBKTNV-1">
          <mxGeometry x="40" y="20" width="320" height="200" as="geometry" />
        </mxCell>
        <mxCell id="2JI3gn7ElyO9Jui0lNbg-15" value="" style="edgeStyle=orthogonalEdgeStyle;rounded=0;orthogonalLoop=1;jettySize=auto;html=1;" edge="1" parent="WIyWlLk6GJQsqaUBKTNV-1" source="2JI3gn7ElyO9Jui0lNbg-8" target="2JI3gn7ElyO9Jui0lNbg-9">
          <mxGeometry relative="1" as="geometry" />
        </mxCell>
        <mxCell id="2JI3gn7ElyO9Jui0lNbg-19" value="" style="rounded=0;orthogonalLoop=1;jettySize=auto;html=1;" edge="1" parent="WIyWlLk6GJQsqaUBKTNV-1" source="2JI3gn7ElyO9Jui0lNbg-8" target="2JI3gn7ElyO9Jui0lNbg-18">
          <mxGeometry relative="1" as="geometry" />
        </mxCell>
        <mxCell id="2JI3gn7ElyO9Jui0lNbg-8" value="GameManager::GameManager()&lt;br&gt;游戏管理类构造函数" style="rounded=0;whiteSpace=wrap;html=1;fillColor=#dae8fc;strokeColor=#6c8ebf;verticalAlign=middle;" vertex="1" parent="WIyWlLk6GJQsqaUBKTNV-1">
          <mxGeometry x="70" y="80" width="260" height="50" as="geometry" />
        </mxCell>
        <mxCell id="2JI3gn7ElyO9Jui0lNbg-9" value="GameView::GameView()&lt;div&gt;游戏界面类构造函数&lt;br&gt;&lt;/div&gt;" style="rounded=0;whiteSpace=wrap;html=1;fillColor=#e1d5e7;strokeColor=#9673a6;verticalAlign=top;" vertex="1" parent="WIyWlLk6GJQsqaUBKTNV-1">
          <mxGeometry x="70" y="160" width="260" height="40" as="geometry" />
        </mxCell>
        <mxCell id="2JI3gn7ElyO9Jui0lNbg-18" value="GameManager::GameManager()&lt;br&gt;游戏管理类构造函数" style="whiteSpace=wrap;html=1;fillColor=#dae8fc;strokeColor=#6c8ebf;rounded=0;verticalAlign=top;" vertex="1" parent="WIyWlLk6GJQsqaUBKTNV-1">
          <mxGeometry x="430" y="-355" width="256" height="270" as="geometry" />
        </mxCell>
        <mxCell id="2JI3gn7ElyO9Jui0lNbg-27" style="edgeStyle=orthogonalEdgeStyle;rounded=0;orthogonalLoop=1;jettySize=auto;html=1;" edge="1" parent="WIyWlLk6GJQsqaUBKTNV-1" source="2JI3gn7ElyO9Jui0lNbg-20" target="2JI3gn7ElyO9Jui0lNbg-21">
          <mxGeometry relative="1" as="geometry" />
        </mxCell>
        <mxCell id="2JI3gn7ElyO9Jui0lNbg-20" value="Player::Player()&lt;div&gt;玩家类构造函数&lt;/div&gt;" style="rounded=0;whiteSpace=wrap;html=1;fillColor=#ffe6cc;strokeColor=#d79b00;" vertex="1" parent="WIyWlLk6GJQsqaUBKTNV-1">
          <mxGeometry x="499" y="-290" width="120" height="30" as="geometry" />
        </mxCell>
        <mxCell id="2JI3gn7ElyO9Jui0lNbg-32" style="edgeStyle=orthogonalEdgeStyle;rounded=0;orthogonalLoop=1;jettySize=auto;html=1;entryX=0.5;entryY=0;entryDx=0;entryDy=0;" edge="1" parent="WIyWlLk6GJQsqaUBKTNV-1" source="2JI3gn7ElyO9Jui0lNbg-21" target="2JI3gn7ElyO9Jui0lNbg-31">
          <mxGeometry relative="1" as="geometry" />
        </mxCell>
        <mxCell id="2JI3gn7ElyO9Jui0lNbg-21" value="Bank::Bank()&lt;div&gt;银行类构造函数&lt;/div&gt;" style="rounded=0;whiteSpace=wrap;html=1;fillColor=#f8cecc;strokeColor=#b85450;" vertex="1" parent="WIyWlLk6GJQsqaUBKTNV-1">
          <mxGeometry x="499" y="-235" width="120" height="30" as="geometry" />
        </mxCell>
        <mxCell id="2JI3gn7ElyO9Jui0lNbg-22" value="Dice::Dice()&lt;div&gt;色子类构造函数&lt;/div&gt;" style="rounded=0;whiteSpace=wrap;html=1;fillColor=#b0e3e6;strokeColor=#0e8088;" vertex="1" parent="WIyWlLk6GJQsqaUBKTNV-1">
          <mxGeometry x="499" y="-140" width="120" height="30" as="geometry" />
        </mxCell>
        <mxCell id="2JI3gn7ElyO9Jui0lNbg-33" style="edgeStyle=orthogonalEdgeStyle;rounded=0;orthogonalLoop=1;jettySize=auto;html=1;entryX=0.5;entryY=0;entryDx=0;entryDy=0;" edge="1" parent="WIyWlLk6GJQsqaUBKTNV-1" source="2JI3gn7ElyO9Jui0lNbg-31" target="2JI3gn7ElyO9Jui0lNbg-22">
          <mxGeometry relative="1" as="geometry" />
        </mxCell>
        <mxCell id="2JI3gn7ElyO9Jui0lNbg-35" value="" style="rounded=0;orthogonalLoop=1;jettySize=auto;html=1;" edge="1" parent="WIyWlLk6GJQsqaUBKTNV-1" source="2JI3gn7ElyO9Jui0lNbg-31" target="2JI3gn7ElyO9Jui0lNbg-34">
          <mxGeometry relative="1" as="geometry" />
        </mxCell>
        <mxCell id="2JI3gn7ElyO9Jui0lNbg-31" value="Map::Map()&lt;div&gt;地图类构造函数&lt;/div&gt;" style="rounded=0;whiteSpace=wrap;html=1;fillColor=#ffff88;strokeColor=#36393d;" vertex="1" parent="WIyWlLk6GJQsqaUBKTNV-1">
          <mxGeometry x="499" y="-190" width="120" height="30" as="geometry" />
        </mxCell>
        <mxCell id="2JI3gn7ElyO9Jui0lNbg-34" value="Map::Map()&lt;div&gt;地图类构造函数&lt;/div&gt;" style="whiteSpace=wrap;html=1;fillColor=#ffff88;strokeColor=#36393d;rounded=0;verticalAlign=top;" vertex="1" parent="WIyWlLk6GJQsqaUBKTNV-1">
          <mxGeometry x="827" y="-205" width="240" height="275" as="geometry" />
        </mxCell>
        <mxCell id="2JI3gn7ElyO9Jui0lNbg-39" style="rounded=0;orthogonalLoop=1;jettySize=auto;html=1;" edge="1" parent="WIyWlLk6GJQsqaUBKTNV-1" source="2JI3gn7ElyO9Jui0lNbg-36" target="2JI3gn7ElyO9Jui0lNbg-38">
          <mxGeometry relative="1" as="geometry" />
        </mxCell>
        <mxCell id="2JI3gn7ElyO9Jui0lNbg-36" value="CountryTile::CountryTile()&lt;div&gt;国家格类构造函数&lt;/div&gt;" style="rounded=0;whiteSpace=wrap;html=1;fillColor=#eeeeee;strokeColor=#36393d;" vertex="1" parent="WIyWlLk6GJQsqaUBKTNV-1">
          <mxGeometry x="847" y="-160" width="200" height="60" as="geometry" />
        </mxCell>
        <mxCell id="2JI3gn7ElyO9Jui0lNbg-37" value="各格衍生类构造函数……" style="text;html=1;align=center;verticalAlign=middle;resizable=0;points=[];autosize=1;strokeColor=none;fillColor=none;" vertex="1" parent="WIyWlLk6GJQsqaUBKTNV-1">
          <mxGeometry x="865" y="-85" width="160" height="30" as="geometry" />
        </mxCell>
        <mxCell id="2JI3gn7ElyO9Jui0lNbg-38" value="Tile::Tile()&lt;div&gt;格类构造函数&lt;/div&gt;" style="rounded=0;whiteSpace=wrap;html=1;fillColor=#6d8764;fontColor=#ffffff;strokeColor=#3A5431;" vertex="1" parent="WIyWlLk6GJQsqaUBKTNV-1">
          <mxGeometry x="1230" y="-130" width="120" height="60" as="geometry" />
        </mxCell>
        <mxCell id="2JI3gn7ElyO9Jui0lNbg-40" style="rounded=0;orthogonalLoop=1;jettySize=auto;html=1;exitX=0.988;exitY=0.524;exitDx=0;exitDy=0;exitPerimeter=0;entryX=0;entryY=0.5;entryDx=0;entryDy=0;" edge="1" parent="WIyWlLk6GJQsqaUBKTNV-1" source="2JI3gn7ElyO9Jui0lNbg-37" target="2JI3gn7ElyO9Jui0lNbg-38">
          <mxGeometry relative="1" as="geometry">
            <mxPoint x="1057" y="-111" as="sourcePoint" />
            <mxPoint x="1240" y="-95" as="targetPoint" />
          </mxGeometry>
        </mxCell>
        <mxCell id="2JI3gn7ElyO9Jui0lNbg-41" style="edgeStyle=orthogonalEdgeStyle;rounded=0;orthogonalLoop=1;jettySize=auto;html=1;exitX=0.5;exitY=1;exitDx=0;exitDy=0;" edge="1" parent="WIyWlLk6GJQsqaUBKTNV-1" source="2JI3gn7ElyO9Jui0lNbg-5" target="2JI3gn7ElyO9Jui0lNbg-5">
          <mxGeometry relative="1" as="geometry" />
        </mxCell>
        <mxCell id="2JI3gn7ElyO9Jui0lNbg-42" value="GameManager" style="rounded=0;whiteSpace=wrap;html=1;fillColor=#dae8fc;strokeColor=#6c8ebf;verticalAlign=top;" vertex="1" parent="WIyWlLk6GJQsqaUBKTNV-1">
          <mxGeometry x="712.5" y="630" width="340" height="770" as="geometry" />
        </mxCell>
        <mxCell id="2JI3gn7ElyO9Jui0lNbg-43" value="GameView" style="rounded=0;whiteSpace=wrap;html=1;fillColor=#e1d5e7;strokeColor=#9673a6;verticalAlign=top;" vertex="1" parent="WIyWlLk6GJQsqaUBKTNV-1">
          <mxGeometry x="300" y="630" width="340" height="770" as="geometry" />
        </mxCell>
        <mxCell id="2JI3gn7ElyO9Jui0lNbg-45" value="start()&lt;div&gt;重置成员数据值&lt;/div&gt;" style="rounded=0;whiteSpace=wrap;html=1;" vertex="1" parent="WIyWlLk6GJQsqaUBKTNV-1">
          <mxGeometry x="777.5" y="690" width="210" height="30" as="geometry" />
        </mxCell>
        <mxCell id="2JI3gn7ElyO9Jui0lNbg-48" value="&lt;div&gt;StartMenuWidget&lt;br&gt;&lt;/div&gt;开始菜单" style="rounded=0;whiteSpace=wrap;html=1;verticalAlign=top;fillColor=#d5e8d4;gradientColor=#97d077;strokeColor=#82b366;" vertex="1" parent="WIyWlLk6GJQsqaUBKTNV-1">
          <mxGeometry x="322.5" y="670" width="270" height="100" as="geometry" />
        </mxCell>
        <mxCell id="2JI3gn7ElyO9Jui0lNbg-56" style="edgeStyle=orthogonalEdgeStyle;rounded=0;orthogonalLoop=1;jettySize=auto;html=1;entryX=0.5;entryY=0;entryDx=0;entryDy=0;" edge="1" parent="WIyWlLk6GJQsqaUBKTNV-1" source="2JI3gn7ElyO9Jui0lNbg-47" target="2JI3gn7ElyO9Jui0lNbg-49">
          <mxGeometry relative="1" as="geometry" />
        </mxCell>
        <mxCell id="2JI3gn7ElyO9Jui0lNbg-47" value="开始游戏按钮" style="rounded=0;whiteSpace=wrap;html=1;" vertex="1" parent="WIyWlLk6GJQsqaUBKTNV-1">
          <mxGeometry x="352.5" y="710" width="210" height="30" as="geometry" />
        </mxCell>
        <mxCell id="2JI3gn7ElyO9Jui0lNbg-49" value="CharacterSelectionWidget&lt;div&gt;人物选择菜单&lt;/div&gt;" style="rounded=0;whiteSpace=wrap;html=1;verticalAlign=top;fillColor=#e6d0de;gradientColor=#d5739d;strokeColor=#996185;" vertex="1" parent="WIyWlLk6GJQsqaUBKTNV-1">
          <mxGeometry x="322.5" y="790" width="270" height="150" as="geometry" />
        </mxCell>
        <mxCell id="2JI3gn7ElyO9Jui0lNbg-50" value="&lt;div&gt;GameBoardWidget&lt;br&gt;&lt;/div&gt;地图菜单" style="rounded=0;whiteSpace=wrap;html=1;verticalAlign=top;fillColor=#fff2cc;gradientColor=#ffd966;strokeColor=#d6b656;" vertex="1" parent="WIyWlLk6GJQsqaUBKTNV-1">
          <mxGeometry x="322.5" y="990" width="270" height="360" as="geometry" />
        </mxCell>
        <mxCell id="2JI3gn7ElyO9Jui0lNbg-68" style="rounded=0;orthogonalLoop=1;jettySize=auto;html=1;entryX=0;entryY=0.5;entryDx=0;entryDy=0;" edge="1" parent="WIyWlLk6GJQsqaUBKTNV-1" source="2JI3gn7ElyO9Jui0lNbg-58" target="2JI3gn7ElyO9Jui0lNbg-67">
          <mxGeometry relative="1" as="geometry" />
        </mxCell>
        <mxCell id="2JI3gn7ElyO9Jui0lNbg-69" value="根据框选填充玩家信息" style="edgeLabel;html=1;align=center;verticalAlign=middle;resizable=0;points=[];labelBackgroundColor=default;labelPosition=center;verticalLabelPosition=middle;textShadow=0;labelBorderColor=default;" vertex="1" connectable="0" parent="2JI3gn7ElyO9Jui0lNbg-68">
          <mxGeometry x="-0.2555" y="-2" relative="1" as="geometry">
            <mxPoint x="30" y="-14" as="offset" />
          </mxGeometry>
        </mxCell>
        <mxCell id="2JI3gn7ElyO9Jui0lNbg-76" style="rounded=0;orthogonalLoop=1;jettySize=auto;html=1;entryX=0;entryY=0.5;entryDx=0;entryDy=0;" edge="1" parent="WIyWlLk6GJQsqaUBKTNV-1" source="2JI3gn7ElyO9Jui0lNbg-58" target="2JI3gn7ElyO9Jui0lNbg-45">
          <mxGeometry relative="1" as="geometry" />
        </mxCell>
        <mxCell id="2JI3gn7ElyO9Jui0lNbg-77" value="Text" style="edgeLabel;html=1;align=center;verticalAlign=middle;resizable=0;points=[];" vertex="1" connectable="0" parent="2JI3gn7ElyO9Jui0lNbg-76">
          <mxGeometry x="0.1774" y="2" relative="1" as="geometry">
            <mxPoint as="offset" />
          </mxGeometry>
        </mxCell>
        <mxCell id="2JI3gn7ElyO9Jui0lNbg-58" value="开始游戏按钮" style="rounded=0;whiteSpace=wrap;html=1;" vertex="1" parent="WIyWlLk6GJQsqaUBKTNV-1">
          <mxGeometry x="480" y="865" width="110" height="30" as="geometry" />
        </mxCell>
        <mxCell id="2JI3gn7ElyO9Jui0lNbg-62" value="" style="endArrow=classic;html=1;rounded=0;entryX=0.5;entryY=0;entryDx=0;entryDy=0;exitX=0.5;exitY=1;exitDx=0;exitDy=0;" edge="1" parent="WIyWlLk6GJQsqaUBKTNV-1" source="2JI3gn7ElyO9Jui0lNbg-58" target="2JI3gn7ElyO9Jui0lNbg-50">
          <mxGeometry width="50" height="50" relative="1" as="geometry">
            <mxPoint x="460" y="870" as="sourcePoint" />
            <mxPoint x="620" y="890" as="targetPoint" />
          </mxGeometry>
        </mxCell>
        <mxCell id="2JI3gn7ElyO9Jui0lNbg-65" value="" style="endArrow=classic;html=1;rounded=0;entryX=0;entryY=0.5;entryDx=0;entryDy=0;exitX=1.013;exitY=0.494;exitDx=0;exitDy=0;exitPerimeter=0;" edge="1" parent="WIyWlLk6GJQsqaUBKTNV-1" source="2JI3gn7ElyO9Jui0lNbg-66" target="2JI3gn7ElyO9Jui0lNbg-58">
          <mxGeometry width="50" height="50" relative="1" as="geometry">
            <mxPoint x="420" y="890" as="sourcePoint" />
            <mxPoint x="620" y="980" as="targetPoint" />
          </mxGeometry>
        </mxCell>
        <mxCell id="2JI3gn7ElyO9Jui0lNbg-66" value="" style="rounded=0;whiteSpace=wrap;html=1;" vertex="1" parent="WIyWlLk6GJQsqaUBKTNV-1">
          <mxGeometry x="325" y="840" width="125" height="90" as="geometry" />
        </mxCell>
        <mxCell id="2JI3gn7ElyO9Jui0lNbg-57" value="框选人物" style="rounded=0;whiteSpace=wrap;html=1;" vertex="1" parent="WIyWlLk6GJQsqaUBKTNV-1">
          <mxGeometry x="330" y="850" width="110" height="30" as="geometry" />
        </mxCell>
        <mxCell id="2JI3gn7ElyO9Jui0lNbg-63" value="输入名字" style="rounded=0;whiteSpace=wrap;html=1;" vertex="1" parent="WIyWlLk6GJQsqaUBKTNV-1">
          <mxGeometry x="330" y="890" width="110" height="30" as="geometry" />
        </mxCell>
        <mxCell id="2JI3gn7ElyO9Jui0lNbg-67" value="QVector&amp;lt;Player*&amp;gt;&amp;nbsp; &amp;nbsp; players&lt;div&gt;玩家容器&lt;/div&gt;" style="rounded=0;whiteSpace=wrap;html=1;fillColor=#ffe6cc;strokeColor=#d79b00;" vertex="1" parent="WIyWlLk6GJQsqaUBKTNV-1">
          <mxGeometry x="777.5" y="780" width="210" height="40" as="geometry" />
        </mxCell>
        <mxCell id="2JI3gn7ElyO9Jui0lNbg-71" value="Map*&amp;nbsp; &amp;nbsp; map&lt;div&gt;地图成员类&lt;/div&gt;" style="rounded=0;whiteSpace=wrap;html=1;fillColor=#ffff88;strokeColor=#36393d;verticalAlign=top;" vertex="1" parent="WIyWlLk6GJQsqaUBKTNV-1">
          <mxGeometry x="777.5" y="850" width="210" height="220" as="geometry" />
        </mxCell>
        <mxCell id="2JI3gn7ElyO9Jui0lNbg-72" value="QVector&amp;lt;Tile*&amp;gt; tiles&lt;div&gt;格子对象容器&lt;/div&gt;" style="rounded=0;whiteSpace=wrap;html=1;fillColor=#6d8764;fontColor=#ffffff;strokeColor=#3A5431;" vertex="1" parent="WIyWlLk6GJQsqaUBKTNV-1">
          <mxGeometry x="813.75" y="895" width="137.5" height="60" as="geometry" />
        </mxCell>
        <mxCell id="2JI3gn7ElyO9Jui0lNbg-74" style="rounded=0;orthogonalLoop=1;jettySize=auto;html=1;exitX=1;exitY=0.25;exitDx=0;exitDy=0;entryX=0;entryY=0.5;entryDx=0;entryDy=0;endArrow=classic;endFill=1;" edge="1" parent="WIyWlLk6GJQsqaUBKTNV-1" source="2JI3gn7ElyO9Jui0lNbg-50" target="2JI3gn7ElyO9Jui0lNbg-72">
          <mxGeometry relative="1" as="geometry" />
        </mxCell>
        <mxCell id="2JI3gn7ElyO9Jui0lNbg-75" value="根据格子容器的信息和人物头像，初始化地图" style="edgeLabel;html=1;align=center;verticalAlign=middle;resizable=0;points=[];labelBorderColor=default;" vertex="1" connectable="0" parent="2JI3gn7ElyO9Jui0lNbg-74">
          <mxGeometry x="-0.3451" relative="1" as="geometry">
            <mxPoint x="15" y="-10" as="offset" />
          </mxGeometry>
        </mxCell>
        <mxCell id="2JI3gn7ElyO9Jui0lNbg-78" value="投色子按钮" style="rounded=0;whiteSpace=wrap;html=1;" vertex="1" parent="WIyWlLk6GJQsqaUBKTNV-1">
          <mxGeometry x="377.5" y="1050" width="160" height="30" as="geometry" />
        </mxCell>
        <mxCell id="2JI3gn7ElyO9Jui0lNbg-79" value="格子" style="rounded=0;whiteSpace=wrap;html=1;verticalAlign=top;" vertex="1" parent="WIyWlLk6GJQsqaUBKTNV-1">
          <mxGeometry x="377.5" y="1110" width="160" height="120" as="geometry" />
        </mxCell>
        <mxCell id="2JI3gn7ElyO9Jui0lNbg-80" value="右键查看信息" style="rounded=0;whiteSpace=wrap;html=1;" vertex="1" parent="WIyWlLk6GJQsqaUBKTNV-1">
          <mxGeometry x="397.5" y="1130" width="120" height="60" as="geometry" />
        </mxCell>
      </root>
    </mxGraphModel>
  </diagram>
</mxfile>
